<?xml version="1.0" standalone="no"?>
<!DOCTYPE svg PUBLIC "-//W3C//DTD SVG 20010904//EN"
 "http://www.w3.org/TR/2001/REC-SVG-20010904/DTD/svg10.dtd">
<svg version="1.0" xmlns="http://www.w3.org/2000/svg"
 width="512.000000pt" height="512.000000pt" viewBox="0 0 512.000000 512.000000"
 preserveAspectRatio="xMidYMid meet">
<metadata>
Created by potrace 1.14, written by Peter Selinger 2001-2017
</metadata>
<g transform="translate(0.000000,512.000000) scale(0.100000,-0.100000)"
fill="#000000" stroke="none">
<path d="M199 4514 c-90 -20 -156 -81 -187 -173 -16 -45 -17 -2477 -2 -2533 6
-21 26 -58 45 -82 33 -44 34 -45 16 -68 -77 -97 -88 -257 -28 -374 43 -83 157
-159 255 -171 l49 -5 12 -54 c36 -159 164 -319 316 -393 316 -156 704 -2 819
324 14 39 27 82 31 98 l5 27 817 -2 816 -3 13 -55 c35 -140 150 -297 268 -365
125 -73 293 -102 428 -75 144 28 308 140 383 260 34 54 72 145 80 192 3 18 9
36 13 40 4 4 138 8 297 10 262 3 294 5 329 22 49 25 99 76 125 129 19 40 20
62 20 567 0 418 -2 537 -14 585 -11 48 -140 379 -210 540 -7 17 -30 71 -50
120 -20 50 -40 99 -45 110 -12 25 -88 211 -174 423 -75 184 -99 226 -148 264
-69 53 -90 54 -640 54 l-508 -1 -1 50 c0 28 0 111 1 186 1 162 -16 223 -81
288 -80 80 34 74 -1572 75 -1007 1 -1443 -2 -1478 -10z m2931 -189 l25 -25 0
-1253 0 -1252 -1468 0 -1469 0 -24 28 -24 28 2 1230 3 1230 25 19 c23 18 49
20 420 22 217 2 865 2 1440 1 l1044 -3 26 -25z m528 -574 c9 -1 12 -139 12
-654 0 -744 -2 -722 76 -800 79 -79 68 -78 673 -78 l531 1 0 -85 0 -85 -44 0
c-23 0 -57 -5 -73 -10 -55 -19 -70 -94 -28 -135 23 -24 51 -30 123 -27 21 1
22 -2 22 -83 0 -74 -2 -85 -17 -86 -91 -2 -107 -6 -129 -33 -61 -71 -3 -146
109 -141 l37 2 0 -94 c0 -103 -15 -147 -54 -157 -12 -3 -140 -6 -286 -6 l-266
0 -12 56 c-32 154 -157 314 -302 386 -125 63 -163 69 -447 68 l-253 0 -1 875
c0 481 0 895 0 920 0 25 0 73 0 108 l1 62 158 -1 c86 -1 163 -2 170 -3z m708
-9 c23 -12 37 -37 84 -157 17 -44 37 -93 45 -110 34 -79 85 -204 85 -209 0 -3
11 -29 24 -58 51 -112 326 -789 326 -803 0 -13 -67 -15 -510 -15 -352 0 -517
3 -533 11 -14 6 -30 22 -36 36 -8 17 -11 217 -11 667 0 353 2 645 4 647 11 10
502 2 522 -9z m-3886 -2169 c-56 -64 -111 -177 -126 -260 -7 -36 -6 -35 -49
-27 -51 9 -112 66 -125 116 -22 81 13 162 85 198 33 16 60 20 148 20 l109 0
-42 -47z m565 33 c78 -20 134 -54 195 -115 164 -166 167 -412 7 -587 -134
-147 -367 -177 -538 -68 -231 145 -262 479 -61 666 109 103 258 142 397 104z
m2252 -28 c-54 -67 -89 -136 -113 -217 l-22 -76 -815 -3 -814 -2 -18 62 c-22
83 -68 172 -116 231 l-40 47 986 0 986 0 -34 -42z m571 27 c274 -79 396 -391
247 -634 -159 -261 -536 -269 -710 -16 -136 197 -81 467 122 599 91 60 235 81
341 51z"/>
<path d="M495 4182 c-99 -2 -127 -12 -144 -49 -18 -39 -13 -63 18 -94 l29 -29
156 0 c149 0 156 1 182 24 21 18 28 32 28 60 0 77 -55 95 -269 88z"/>
<path d="M1062 4180 c-74 -4 -85 -8 -102 -30 -35 -45 -23 -102 27 -128 16 -9
271 -12 982 -12 l960 0 26 23 c38 33 40 83 5 119 -27 27 -33 28 -122 28 -51 0
-453 2 -893 3 -440 1 -837 0 -883 -3z"/>
<path d="M840 1429 c-97 -44 -153 -130 -154 -235 -1 -207 233 -326 402 -204
65 47 99 113 107 204 3 41 -28 122 -61 163 -69 84 -198 116 -294 72z m163
-180 c42 -51 3 -139 -62 -139 -41 0 -82 38 -86 78 -2 24 5 40 26 64 26 27 34
30 67 25 20 -4 45 -16 55 -28z"/>
<path d="M3663 1434 c-102 -36 -171 -150 -160 -265 11 -123 104 -215 227 -226
81 -8 147 16 204 74 101 101 101 256 0 357 -72 71 -174 94 -271 60z m130 -165
c25 -11 47 -47 47 -74 0 -69 -89 -110 -138 -65 -74 69 0 181 91 139z"/>
</g>
</svg>
